<?xml version="1.0" encoding="utf-8"?>
<!-- Generator: Adobe Illustrator 15.0.0, SVG Export Plug-In . SVG Version: 6.00 Build 0)  -->
<!DOCTYPE svg PUBLIC "-//W3C//DTD SVG 1.1//EN" "http://www.w3.org/Graphics/SVG/1.1/DTD/svg11.dtd">
<svg version="1.1" id="Capa_1" xmlns="http://www.w3.org/2000/svg" xmlns:xlink="http://www.w3.org/1999/xlink" x="0px" y="0px"
	 width="1132.677px" height="575.035px" viewBox="-20.884 124.965 1132.677 575.035"
	 enable-background="new -20.884 124.965 1132.677 575.035" xml:space="preserve">
<symbol  id="Nuevo_símbolo_2" viewBox="-99.539 -151.528 199.078 303.057">
	<g id="diverlingua_2_">
		<path fill="#FFFFFF" d="M22.576,32.744c0-9.704-6.661-17.831-15.664-20.087c-2.902,0.445-5.891,0.662-8.917,0.662
			c-1.057,0-2.095-0.019-3.133-0.071c-0.018,0-0.036,0-0.036,0c-23.774-1.199-43.97-15.88-53.099-36.557
			c-1.217-2.738-2.238-5.586-3.062-8.54c0.018-0.02,0-0.02-0.018-0.036c-3.652-5.782-10.116-9.631-17.492-9.631
			c-11.438,0-20.694,9.255-20.694,20.694c0,0.412,0.018,0.823,0.035,1.235c1.075,3.705,2.347,7.305,3.813,10.813
			c15.326,36.574,51.418,62.157,93.686,62.157c0.716,0,1.434,0,2.148-0.017c0,0,0,0,0.018,0c1.844-0.036,3.671-0.125,5.479-0.27
			C15.271,51.327,22.576,42.895,22.576,32.744z"/>
		<path fill="none" stroke="#1A161A" stroke-width="0.4652" stroke-miterlimit="10" d="M59.488-4.854"/>
		<path fill="#FFFFFF" d="M99.538,131.709V33.245c-2.112-9.023-10.131-15.736-19.745-15.736c-11.208,0-20.304,9.166-20.304,20.463
			v93.737c0,10.921,8.899,19.819,19.819,19.819C90.641,151.528,99.538,142.631,99.538,131.709z"/>
		<path fill="#FFFFFF" d="M79.793,4.798c-11.208,0-20.304-9.167-20.304-20.464v-34.301c0-33.997-27.515-61.515-61.494-61.515
			c-25.027,0-46.528,15.146-56.161,36.505v0.018c-1.556,3.492-2.81,7.143-3.704,10.94c0,0.017,0,0.017,0,0.017
			c-3.742,5.353-9.955,8.844-16.974,8.844c-11.438,0-20.694-9.271-20.694-20.713c0-1.127,0.089-2.22,0.25-3.295
			c0.018-0.017,0.018-0.035,0.018-0.035c0.645-2.147,1.343-4.262,2.132-6.354c0-0.019,0.017-0.035,0.017-0.055
			c14.431-38.399,51.488-65.918,95.117-65.918c55.819,0,101.543,45.726,101.543,101.563v39.026
			C97.426-1.916,89.407,4.798,79.793,4.798z"/>
	</g>
</symbol>
<symbol  id="Nuevo_símbolo_3" viewBox="-224.896 -149.12 449.791 298.24">
	<g id="diverlingua_4_">
		<path fill="#FFFFFF" d="M-184.591-78.714v24.898c0,2.7,2.2,4.9,4.9,4.9c2.8,0,5-2.2,5-4.9v-44.801v-0.1
			c0-13.804-11.301-25.104-25.102-25.104c-13.901,0-25.102,11.299-25.102,25.104c0,13.897,11.201,25.1,25.102,25.1
			C-194.091-73.614-188.792-75.514-184.591-78.714z M-184.591-98.714v0.1c0,8.3-6.8,15.102-15.201,15.102
			s-15.201-6.802-15.201-15.199c0-8.301,6.801-15.201,15.201-15.201S-184.591-107.117-184.591-98.714z"/>
		<path fill="#FFFFFF" d="M-166.995-62.514c-0.9,0.898-1.5,2.199-1.5,3.5s0.6,2.601,1.5,3.501c0.9,0.897,2.2,1.5,3.5,1.5
			c1.3,0,2.6-0.603,3.5-1.5c0.9-0.9,1.4-2.2,1.4-3.501s-0.5-2.602-1.4-3.5c-0.9-0.9-2.2-1.4-3.5-1.4
			C-164.793-63.914-166.093-63.414-166.995-62.514z M-168.495-119.117v40.303c0,2.7,2.2,4.9,5,4.9c2.7,0,4.9-2.2,4.9-4.9v-40.303
			c0-2.801-2.2-5-4.9-5C-166.293-124.117-168.495-121.918-168.495-119.117z"/>
		<path fill="#FFFFFF" d="M-112.592-80.714l-15.001-40.003c-0.8-2-2.7-3.301-4.7-3.301c-0.1,0-0.1,0-0.1,0c-2.1,0-4,1.398-4.7,3.301
			l-15.001,40.003c-1,2.6,0.3,5.5,2.9,6.397c2.6,1,5.4-0.3,6.4-2.898l10.5-27.899l10.4,27.899c1,2.601,3.8,3.898,6.4,2.898
			C-112.894-75.214-111.592-78.114-112.592-80.714z"/>
		<path fill="#FFFFFF" d="M-59.395-98.915c0-2.699-2.2-4.9-5-4.9h-34.502c2.1-6,7.7-10.302,14.401-10.302
			c2.3,0,6.4,0.202,11.201,3.302c2.3,1.5,5.4,0.101,6.6-2.302c1.2-2.5-0.1-5.1-2.4-6.6c-6.601-4.4-11.701-4.301-15.401-4.301
			c-13.901,0-25.102,11.301-25.102,25.103c0,13.9,11.201,25.101,25.102,25.101C-72.396-73.814-59.395-82.614-59.395-98.915z
			 M-98.896-93.915h28.902c-2.1,7-8.5,10.201-14.501,10.201C-91.195-83.714-96.795-88.015-98.896-93.915z"/>
		<path fill="#FFFFFF" d="M-23.296-78.814c0-2.698-2.2-5-5-5c-8.4,0-15.201-6.8-15.201-15.198v-20.104c0-2.698-2.2-5-4.9-5
			c-2.8,0-5,2.302-5,5v20.104c0,13.898,11.301,25.101,25.102,25.101C-25.499-73.914-23.296-76.114-23.296-78.814z"/>
		<path fill="#FFFFFF" d="M-17.301-119.117v65.104c0,2.698,2.2,4.898,5,4.898c2.7,0,4.9-2.2,4.9-4.898v-65.104c0-2.801-2.2-5-4.9-5
			C-15.103-124.117-17.301-121.918-17.301-119.117z"/>
		<path fill="#FFFFFF" d="M0.296-62.514c-0.899,0.898-1.5,2.199-1.5,3.5s0.601,2.601,1.5,3.501c0.9,0.897,2.201,1.5,3.501,1.5
			c1.3,0,2.601-0.603,3.5-1.5c0.9-0.9,1.4-2.2,1.4-3.501s-0.5-2.602-1.4-3.5c-0.899-0.9-2.2-1.4-3.5-1.4
			C2.499-63.914,1.196-63.414,0.296-62.514z M-1.204-119.117v40.303c0,2.7,2.201,4.9,5.001,4.9c2.7,0,4.9-2.2,4.9-4.9v-40.303
			c0-2.801-2.2-5-4.9-5C0.999-124.117-1.204-121.918-1.204-119.117z"/>
		<path fill="#FFFFFF" d="M65.601-98.915v-20.103c0-2.8-2.199-5-5-5c-2.699,0-4.9,2.2-4.9,5v20.103
			c0,8.4-6.801,15.201-15.201,15.201s-15.2-6.801-15.2-15.201v-20.103c0-2.8-2.2-5-5.001-5c-2.699,0-4.9,2.2-4.9,5v20.103
			c0,13.9,11.301,25.101,25.102,25.101S65.601-85.015,65.601-98.915z"/>
		<path fill="#FFFFFF" d="M121.696-124.018c0-13.803-11.301-25.103-25.102-25.103c-9.701,0-18.301,5.399-22.602,14.103
			c-1.199,2.5-0.199,5.398,2.301,6.6c2.4,1.201,5.4,0.201,6.6-2.199c2.6-5.301,7.801-8.602,13.701-8.602
			c8.301,0,15,6.701,15.201,14.901c0,0.101,0,0.198,0,5.5c-4.301-3.2-9.5-5.2-15.201-5.2c-13.9,0-25.102,11.301-25.102,25.103
			c0,13.9,11.201,25.101,25.102,25.101c13.801,0,25.102-11.198,25.102-25.101C121.696-98.915,121.696-98.915,121.696-124.018z
			 M111.796-98.915c0,8.4-6.9,15.201-15.201,15.201c-8.4,0-15.201-6.801-15.201-15.201c0-8.302,6.801-15.202,15.201-15.202
			C104.896-114.117,111.796-107.217,111.796-98.915z"/>
		<path fill="#FFFFFF" d="M168.896-78.814v-25.101v-0.1c-0.1-11.104-9.1-20.104-20.301-20.104c-11.1,0-20.102,9-20.201,20.104v0.1
			v25.101c0,2.7,2.201,4.9,4.9,4.9c2.801,0,5-2.2,5-4.9v-25.001c0-5.697,4.6-10.399,10.301-10.399c5.801,0,10.4,4.702,10.4,10.399
			v25.001c0,2.7,2.201,4.9,5,4.9C166.694-73.914,168.896-76.114,168.896-78.814z"/>
		<path fill="#FFFFFF" d="M224.896-99.315v-19.603c0-2.897-2.1-5-5-5c-2,0-4.801,2.103-4.801,5c-4.299-3.6-9.1-5-14.801-5
			c-14.1,0-25.301,10.503-25.301,24.603c0,14.104,11.201,25.304,25.301,25.304C214.396-74.014,224.896-85.214,224.896-99.315z
			 M215.093-99.315c0,8.4-6.4,15.501-14.801,15.501s-15.5-7.101-15.5-15.501c0-8.399,7.1-14.802,15.5-14.802
			S215.093-107.717,215.093-99.315z"/>
		<path fill="#FFFFFF" d="M11.107,82.77c0-5.42-3.721-9.959-8.75-11.22c-1.62,0.25-3.29,0.37-4.98,0.37c-0.59,0-1.17-0.01-1.75-0.04
			c-0.01,0-0.02,0-0.02,0c-13.28-0.67-24.561-8.87-29.66-20.42c-0.68-1.53-1.25-3.12-1.71-4.771c0.01-0.012,0-0.012-0.01-0.021
			c-2.04-3.229-5.65-5.38-9.771-5.38c-6.39,0-11.56,5.17-11.56,11.56c0,0.23,0.01,0.461,0.02,0.69c0.601,2.069,1.311,4.08,2.13,6.04
			c8.561,20.43,28.721,34.72,52.33,34.72c0.4,0,0.801,0,1.2-0.01c0,0,0,0,0.01,0c1.03-0.021,2.051-0.069,3.061-0.149
			C7.027,93.15,11.107,88.439,11.107,82.77z"/>
		<path fill="none" stroke="#19161A" stroke-miterlimit="10" d="M31.728,61.769"/>
		<path fill="#FFFFFF" d="M54.099,138.05v-55c-1.18-5.04-5.659-8.79-11.029-8.79c-6.261,0-11.341,5.12-11.341,11.432v52.358
			c0,6.102,4.971,11.07,11.07,11.07C49.127,149.12,54.099,144.15,54.099,138.05z"/>
		<path fill="#FFFFFF" d="M43.067,67.16c-6.261,0-11.341-5.12-11.341-11.432V36.57c0-18.99-15.369-34.36-34.35-34.36
			c-13.979,0-25.989,8.46-31.37,20.39v0.012c-0.869,1.949-1.569,3.988-2.069,6.109c0,0.012,0,0.012,0,0.012
			c-2.09,2.988-5.561,4.938-9.48,4.938c-6.39,0-11.56-5.18-11.56-11.57c0-0.629,0.05-1.238,0.14-1.84c0.01-0.01,0.01-0.02,0.01-0.02
			c0.36-1.2,0.75-2.381,1.19-3.551c0-0.012,0.01-0.021,0.01-0.029c8.061-21.45,28.76-36.82,53.13-36.82
			c31.18,0,56.72,25.54,56.72,56.73v21.8C52.917,63.41,48.438,67.16,43.067,67.16z"/>
	</g>
</symbol>
<linearGradient id="SVGID_1_" gradientUnits="userSpaceOnUse" x1="-240.5198" y1="283.311" x2="997.1536" y2="283.311" gradientTransform="matrix(1 0 0 1 158.1396 105.7412)">
	<stop  offset="0" style="stop-color:#0099CC"/>
	<stop  offset="1" style="stop-color:#00C4CC"/>
</linearGradient>
<rect x="-82.38" y="78.104" fill="url(#SVGID_1_)" width="1237.673" height="621.896"/>
<use xlink:href="#Nuevo_símbolo_3"  width="449.791" height="298.24" id="XMLID_1_" x="-224.896" y="-149.12" transform="matrix(0.202 0 0 -0.202 97.4368 192.001)" overflow="visible"/>
<path fill="#FFFFFF" d="M1000,700H605.313c-2.631-5.796-4.095-12.269-4.095-19.075c0-25.249,20.15-45.711,45.001-45.711
	c4.66,0,9.173,0.725,13.399,2.063c3.887-15.343,16.869-26.973,32.769-28.597c-0.774-2.711-1.182-5.559-1.182-8.521
	c0-17.064,13.609-30.896,30.404-30.896c5.521,0,10.71,1.499,15.173,4.123c4.192-3.372,9.48-5.372,15.234-5.372
	c1.808,0,3.563,0.199,5.263,0.574c-0.354-2.087-0.541-4.234-0.541-6.433c0-20.987,16.746-38.002,37.4-38.002
	c7.92,0,15.26,2.498,21.309,6.771c5.437-4.312,11.865-7.384,18.889-8.796l23.111-202.913h3.246l23.927,210.046
	c5.511-3.248,11.914-5.107,18.737-5.107c12.099,0,22.856,5.834,29.693,14.901c11.729,2.563,20.963,12.006,23.385,23.975
	c0.197-0.016,0.406-0.016,0.615-0.016c19.99,0,36.247,16.329,36.526,36.592c2.007-1.646,4.152-3.117,6.419-4.397"/>
<g>
	
		<image overflow="visible" opacity="0.14" enable-background="new    " width="147" height="256" xlink:href="../mockups/33E8CD3A.png"  transform="matrix(1 0 0 1 789.0022 160.0015)">
	</image>
	<g>
		<g>
			<g>
				<path fill="#AD5CAD" d="M810.42,311.573c-9.623,7.173-15.93,20.558-16.06,34.102l-0.22,22.615
					c-0.024,2.558,1.67,4.813,4.138,5.502c2.426,0.688,5.074-0.351,6.388-2.572c5.34-9.048,14.295-19.1,18.42-19.61L810.42,311.573z
					"/>
			</g>
			<g>
				<path fill="#AD5CAD" d="M907.055,312.811l-14.108,39.18c3.485,0.567,9.672,7.11,19.479,20.586
					c1.445,1.995,3.999,2.798,6.29,2.06c2.324-0.738,3.908-2.889,3.934-5.328l0.219-22.614
					C922.99,333.916,916.782,320.614,907.055,312.811z"/>
			</g>
			<path fill="#34F77A" d="M898.322,349.42c-4.435,14.318-5.354,15.779-5.83,18.15c-0.591,2.595-2.869,4.383-5.583,4.354
				l-56.54-0.547c-2.6-0.023-4.958-1.86-5.498-4.465c-0.43-2.38-1.211-3.404-5.702-18.262l11.19-11.202l56.539,0.548L898.322,349.42
				z"/>
			<path fill="#FFFFFF" d="M898.322,349.42l-79.155-0.768c-16.862-56.821-15.959-103.521,2.715-139.752l38.335,0.258l37.542,0.365
				C915.61,245.997,915.835,292.818,898.322,349.42z"/>
			<g>
				
					<image overflow="visible" opacity="0.14" enable-background="new    " width="75" height="76" xlink:href="../mockups/33E8CD3D.png"  transform="matrix(1 0 0 1 826.0002 227.001)">
				</image>
				<g>
					<path fill="#66C2E0" d="M859.977,233.811l-0.341-0.004c-15.604-0.151-28.395,12.392-28.542,27.997
						c-0.151,15.604,12.391,28.392,27.994,28.542l0.338,0.003c15.381-0.077,28.055-12.507,28.205-27.999
						C887.781,246.858,875.351,234.186,859.977,233.811z"/>
				</g>
			</g>
			<g>
				<path fill="#AD5CAD" d="M898.023,209.523c-9.348,7.938-22.742,13.011-37.671,12.979l-0.338-0.003
					c-15.153-0.146-28.675-5.367-37.867-13.6c1.729-3.489,3.684-6.862,5.753-10.122c7.578-11.8,17.293-22.338,29.031-31.61
					c1.139-0.893,2.612-1.331,3.968-1.093c1.132,0.012,2.258,0.361,3.155,1.163c11.559,9.383,20.952,20.22,28.299,32.164
					C894.359,202.702,896.247,206,898.023,209.523z"/>
			</g>
			<g>
				<path fill="#AD5CAD" d="M862.811,314.584c-1.009-0.915-2.247-1.379-3.605-1.393c-1.58-0.241-3.278,0.194-4.422,1.314
					c-14.956,14.443-13.117,22.943-13.131,24.639c-0.476,48.964,11.165,61.403,12.396,62.658c1.12,1.029,2.473,1.608,3.94,1.623
					c0.113,0.001,0.229,0.002,0.342-0.109c1.132,0.011,2.268-0.432,3.178-1.215c2.277-1.784,13.589-13.438,14.063-62.627
					C875.683,328.393,870.987,322.805,862.811,314.584z"/>
			</g>
		</g>
	</g>
</g>
<g>
	
		<image overflow="visible" opacity="0.14" enable-background="new    " width="68" height="69" xlink:href="../mockups/33E8CD3E.png"  transform="matrix(1 0 0 1 641.0022 637.001)">
	</image>
	<g>
		<circle fill="#FFFFFF" cx="671.286" cy="668.582" r="24.59"/>
	</g>
</g>
<g>
	
		<image overflow="visible" opacity="0.14" enable-background="new    " width="83" height="83" xlink:href="../mockups/33E8CD3C.png"  transform="matrix(1 0 0 1 764.0002 532.001)">
	</image>
	<g>
		<circle fill="#FFFFFF" cx="801.502" cy="570.204" r="31.951"/>
	</g>
</g>
<g>
	
		<image overflow="visible" opacity="0.14" enable-background="new    " width="68" height="68" xlink:href="../mockups/33E8CD3B.png"  transform="matrix(1 0 0 1 863.0022 532.001)">
	</image>
	<g>
		<circle fill="#FFFFFF" cx="892.947" cy="562.844" r="24.591"/>
	</g>
</g>
<g>
	
		<image overflow="visible" opacity="0.14" enable-background="new    " width="85" height="85" xlink:href="../mockups/33E8CD35.png"  transform="matrix(1 0 0 1 820.0002 605.001)">
	</image>
	<g>
		<circle fill="#FFFFFF" cx="858.331" cy="644.358" r="32.984"/>
	</g>
</g>
<g>
	
		<image overflow="visible" opacity="0.14" enable-background="new    " width="54" height="54" xlink:href="../mockups/33E8CD37.png"  transform="matrix(1 0 0 1 717.0002 596.001)">
	</image>
	<g>
		<circle fill="#FFFFFF" cx="740.141" cy="619.982" r="17.828"/>
	</g>
</g>
<g>
	
		<image overflow="visible" opacity="0.14" enable-background="new    " width="68" height="68" xlink:href="../mockups/33E8CD34.png"  transform="matrix(1 0 0 1 928.0012 564.001)">
	</image>
	<g>
		<circle fill="#FFFFFF" cx="957.766" cy="595.146" r="24.59"/>
	</g>
</g>
<g>
	
		<image overflow="visible" opacity="0.14" enable-background="new    " width="48" height="48" xlink:href="../mockups/80A5A929.png"  transform="matrix(1 0 0 1 753.0002 649.001)">
	</image>
	<g>
		<circle fill="#FFFFFF" cx="772.839" cy="669.777" r="14.306"/>
	</g>
</g>
<g>
	
		<image overflow="visible" opacity="0.14" enable-background="new    " width="41" height="41" xlink:href="../mockups/80A5A92F.png"  transform="matrix(1 0 0 1 917.0002 638.001)">
	</image>
	<g>
		<circle fill="#FFFFFF" cx="933.933" cy="655.474" r="11.065"/>
	</g>
</g>
<path fill="#FFFFFF" d="M111.686,700.001C99.728,690.965,92,676.626,92,660.482c0-27.34,22.162-49.5,49.5-49.5s49.5,22.16,49.5,49.5
	c0,16.143-7.729,30.479-19.688,39.518"/>
<path fill="#FFFFFF" d="M163.516,699.999c-6-8.637-9.516-19.129-9.516-30.442c0-29.507,23.92-53.427,53.426-53.427
	s53.426,23.92,53.426,53.427c0,11.313-3.517,21.808-9.517,30.443"/>
<path fill="#FFFFFF" d="M243.531,700.001c-2.266-4.868-3.529-10.296-3.529-16.019c0-20.986,17.013-38,38-38
	c20.985,0,38,17.014,38,38c0,5.723-1.267,11.148-3.531,16.018"/>
<path fill="#FFFFFF" d="M303.297,700.003C293.785,689.386,288,675.359,288,659.982c0-33.139,26.861-60,60-60
	c33.137,0,60,26.861,60,60c0,15.376-5.784,29.399-15.294,40.019"/>
<path fill="#FFFFFF" d="M384.166,700.003c-3.921-6.771-6.166-14.633-6.166-23.021c0-25.404,20.595-46,46-46
	c25.403,0,46,20.596,46,46c0,8.386-2.244,16.247-6.166,23.018"/>
<path fill="#FFFFFF" d="M458.16,700.002c-1.407-5.1-2.16-10.472-2.16-16.02c0-33.139,26.861-60,60-60c33.137,0,60,26.861,60,60
	c0,5.547-0.755,10.918-2.162,16.018"/>
<path fill="#FFFFFF" d="M556.319,700.001c-5.193-6.24-8.318-14.265-8.318-23.019c0-19.884,16.117-36,36-36s36,16.116,36,36
	c0,8.754-3.125,16.776-8.319,23.019"/>
<circle fill="#FFFFFF" cx="36.696" cy="662.662" r="19.14"/>
<g>
	
		<image overflow="visible" opacity="0.14" enable-background="new    " width="69" height="70" xlink:href="../mockups/80A5A928.png"  transform="matrix(0.9855 0 0 0.9857 485.7107 631.9912)">
	</image>
	<g>
		<circle fill="#FFFFFF" cx="516" cy="663.572" r="24.59"/>
	</g>
</g>
<g>
	
		<image overflow="visible" opacity="0.14" enable-background="new    " width="79" height="79" xlink:href="../mockups/80A5A92B.png"  transform="matrix(1 0 0 1 312.0002 613.001)">
	</image>
	<g>
		<circle fill="#FFFFFF" cx="347.5" cy="649.492" r="30.319"/>
	</g>
</g>
<g>
	
		<image overflow="visible" opacity="0.14" enable-background="new    " width="42" height="42" xlink:href="../mockups/80A5A937.png"  transform="matrix(0.9762 0 0 0.9762 418.1331 652.3047)">
	</image>
	<g>
		<circle fill="#FFFFFF" cx="435.065" cy="669.778" r="11.065"/>
	</g>
</g>
<g>
	
		<image overflow="visible" opacity="0.14" enable-background="new    " width="42" height="42" xlink:href="../mockups/80A5A927.png"  transform="matrix(0.9762 0 0 0.9762 271.0676 659.8711)">
	</image>
	<g>
		<circle fill="#FFFFFF" cx="288" cy="677.344" r="11.065"/>
	</g>
</g>
<g>
	
		<image overflow="visible" opacity="0.14" enable-background="new    " width="63" height="63" xlink:href="../mockups/80A5A939.png"  transform="matrix(1.5197 0 0 1.4376 27.634 637.002)">
	</image>
	<g>
		<ellipse fill="#FFFFFF" cx="69.996" cy="677.865" rx="33.302" ry="31.502"/>
	</g>
</g>
<g>
	
		<image overflow="visible" opacity="0.14" enable-background="new    " width="73" height="73" xlink:href="../mockups/80A5A93B.png"  transform="matrix(0.8793 -0.4467 0.4467 0.8793 59.7776 650.4883)">
	</image>
	<g>
		<circle fill="#FFFFFF" cx="103.627" cy="665.195" r="26.565"/>
	</g>
</g>
<g>
	
		<image overflow="visible" opacity="0.14" enable-background="new    " width="51" height="51" xlink:href="../mockups/80A5A938.png"  transform="matrix(1 0 0 1 170.0007 626.001)">
	</image>
	<g>
		<circle fill="#FFFFFF" cx="191.713" cy="648.705" r="15.779"/>
	</g>
</g>
<g>
	
		<image overflow="visible" opacity="0.14" enable-background="new    " width="42" height="42" xlink:href="../mockups/80A5A93F.png"  transform="matrix(0.9762 0 0 0.9762 80.5046 676.501)">
	</image>
	<g>
		<circle fill="#FFFFFF" cx="97.437" cy="693.974" r="11.065"/>
	</g>
</g>
<use xlink:href="#Nuevo_símbolo_2"  width="199.078" height="303.057" x="-99.539" y="-151.528" transform="matrix(0.1379 0 0 -0.1379 858.0842 262.0776)" overflow="visible"/>
<circle fill="#FFFFFF" cx="941.466" cy="461.449" r="12.466"/>
<g>
	
		<image overflow="visible" opacity="0.14" enable-background="new    " width="53" height="51" xlink:href="../mockups/80A5A95C.png"  transform="matrix(1 0 0 1 4.4934 662.6621)">
	</image>
	<g>
		<ellipse fill="#FFFFFF" cx="27.253" cy="685.264" rx="16.87" ry="16.086"/>
	</g>
</g>
<polygon fill="#FEFEC9" points="301.377,199.57 307.565,201.882 301.377,204.193 299.065,210.382 296.754,204.193 290.565,201.882 
	296.754,199.57 299.065,193.382 "/>
<polygon fill="#FEFEC9" points="226.623,492.671 232.812,494.982 226.623,497.294 224.312,503.482 222,497.294 215.812,494.982 
	222,492.671 224.312,486.482 "/>
<polygon fill="#FEFEC9" points="760.28,406.188 766.469,408.5 760.28,410.812 757.969,417 755.656,410.812 749.469,408.5 
	755.656,406.188 757.969,400 "/>
<polygon fill="#FEFEC9" points="111.048,284.139 113.921,284.734 111.048,285.329 110.452,290.217 109.857,285.329 107.142,284.734 
	109.857,284.139 110.452,278.127 "/>
<g>
	
		<image overflow="visible" opacity="0.14" enable-background="new    " width="79" height="79" xlink:href="../mockups/80A5A92B.png"  transform="matrix(1 0 0 1 974.9758 586.501)">
	</image>
	<g>
		<circle fill="#FFFFFF" cx="1010.476" cy="622.992" r="30.319"/>
	</g>
</g>
<g>
	
		<image overflow="visible" opacity="0.14" enable-background="new    " width="79" height="79" xlink:href="../mockups/80A5A92B.png"  transform="matrix(1.6598 0 0 1.6598 962.0012 605.9404)">
	</image>
	<g>
		<circle fill="#FFFFFF" cx="1020.923" cy="666.508" r="50.323"/>
	</g>
</g>
<g>
	
		<image overflow="visible" opacity="0.14" enable-background="new    " width="79" height="79" xlink:href="../mockups/80A5A92B.png"  transform="matrix(1 0 0 1 1041.9739 633.502)">
	</image>
	<g>
		<circle fill="#FFFFFF" cx="1077.474" cy="669.993" r="30.319"/>
	</g>
</g>
<polygon fill="#FEFEC9" points="1029.875,234.883 1036.063,237.194 1029.875,239.506 1027.563,245.694 1025.252,239.506 
	1019.063,237.194 1025.252,234.883 1027.563,228.694 "/>
<circle fill="#FFFFFF" cx="7.895" cy="622.716" r="14.198"/>
</svg>
