<svg id="Capa_1" enable-background="new 0 0 512.002 512.002" height="512" viewBox="0 0 512.002 512.002" width="512" xmlns="http://www.w3.org/2000/svg"><g><path d="m389.421 185.356c-13.68-19.816-20.568-43.626-19.92-68.853.027-1.047.04-2.097.038-3.141-.095-61.679-50.334-112.527-111.992-113.351-30.629-.43-59.5 11.207-81.29 32.708-21.793 21.504-33.795 50.207-33.795 80.82 0 .944.012 1.886.035 2.824.625 25.479-6.17 49.202-19.649 68.607-19.037 27.405-29.017 59.591-28.864 93.077.199 43.361 17.457 84.088 48.596 114.677 30.633 30.094 70.834 46.586 113.42 46.586.727 0 1.458-.004 2.186-.014 42.819-.567 82.983-17.671 113.095-48.16 30.14-30.519 46.738-70.949 46.738-113.845 0-33.042-9.888-64.833-28.598-91.935z" fill="#ffea80"/><path d="m369.501 116.504c.027-1.047.04-2.097.038-3.141-.095-61.68-50.334-112.528-111.992-113.352-.516-.007-1.031-.002-1.546-.003v439.302c.727 0 1.458-.004 2.185-.014 42.819-.567 82.983-17.671 113.095-48.16 30.14-30.519 46.738-70.949 46.738-113.845 0-33.043-9.889-64.834-28.599-91.936-13.679-19.815-20.568-43.625-19.919-68.851z" fill="#fc6"/><path d="m296.726 151.156-29.258-34.702c-2.85-3.38-7.046-5.331-11.468-5.331s-8.618 1.951-11.468 5.331l-29.257 34.702c-2.281 2.706-3.532 6.13-3.532 9.669 0 28.481 31.922 52.013 35.563 54.602 2.603 1.852 5.648 2.777 8.695 2.777 3.046 0 6.093-.926 8.694-2.777 3.641-2.589 35.563-26.12 35.563-54.602.001-3.539-1.25-6.963-3.532-9.669z" fill="#e50058"/><g><g><path d="m300.725 112.986c7.846 0 15.363-6.899 15-15-.364-8.127-6.591-15-15-15-7.846 0-15.363 6.899-15 15 .364 8.127 6.59 15 15 15z" fill="#36414d"/></g></g><g><g><path d="m212.722 112.986c7.846 0 15.363-6.899 15-15-.364-8.127-6.591-15-15-15-7.846 0-15.363 6.899-15 15 .364 8.127 6.591 15 15 15z" fill="#4c6565"/></g></g><path d="m473.972 268.988-71.217-21.425c-3.98-1.196-8.274-.689-11.863 1.398l-63.674 37.037-63.675-37.037c-4.662-2.713-10.422-2.713-15.084 0l-63.674 37.037-63.674-37.037c-3.59-2.09-7.887-2.597-11.863-1.398l-71.218 21.425c-6.339 1.907-10.679 7.744-10.679 14.364 0 61.074 23.784 118.493 66.97 161.68 43.187 43.186 100.605 66.97 161.68 66.97s118.493-23.784 161.68-66.97c43.187-43.187 66.97-100.605 66.97-161.68-.001-6.62-4.341-12.457-10.679-14.364z" fill="#edf5ff"/><path d="m267.469 116.454c-2.85-3.38-7.046-5.331-11.468-5.331v107.081c3.046 0 6.093-.926 8.694-2.777 3.641-2.589 35.563-26.12 35.563-54.602 0-3.539-1.251-6.963-3.532-9.669z" fill="#b40042"/><path d="m473.972 268.988-71.217-21.425c-3.98-1.196-8.274-.689-11.863 1.398l-63.674 37.037-63.675-37.037c-2.331-1.356-4.936-2.035-7.542-2.035v265.075c61.074 0 118.493-23.784 161.679-66.97 43.187-43.187 66.97-100.605 66.97-161.68 0-6.619-4.34-12.456-10.678-14.363z" fill="#c6e2e7"/></g></svg>